Coordinates
version=1
nRows=26
nColumns=24
inDegrees=yes

Units are S.I. units (second, meters, Newtons, ...)
Angles are in degrees.

endheader
time	pelvis_tilt	pelvis_list	pelvis_rotation	pelvis_tx	pelvis_ty	pelvis_tz	hip_flexion_r	hip_adduction_r	hip_rotation_r	knee_angle_r	ankle_angle_r	subtalar_angle_r	mtp_angle_r	hip_flexion_l	hip_adduction_l	hip_rotation_l	knee_angle_l	ankle_angle_l	subtalar_angle_l	mtp_angle_l	lumbar_extension	lumbar_bending	lumbar_rotation
      3.80500000	    -16.61218078	     -4.60898207	      4.73148305	     -1.95562771	     -0.03894422	     -0.32483294	     42.97359397	      1.29937129	    -20.81511177	    -12.90636999	     -0.97305538	      1.61956522	     16.33231758	     -1.15791427	     -3.89180750	     -3.75379627	    -15.88848674	      9.35773017	     10.18884976	      7.96929913	     21.28827525	      0.10796301	    -23.31899817
      3.81000000	    -16.57542041	     -4.89862714	      4.73607646	     -1.94730193	     -0.04002236	     -0.32447124	     43.05786636	      1.60309203	    -20.41049126	    -13.70653757	     -1.68289890	      0.40107524	     16.39076627	     -1.31739689	     -4.37430190	     -3.82621833	    -16.65838512	      8.97896297	     10.63056729	      8.02165998	     21.46202330	      0.39122619	    -23.37962084
      3.81500000	    -16.55301200	     -5.22738920	      4.80257546	     -1.93896611	     -0.04105868	     -0.32419079	     43.17832670	      1.89229683	    -20.04107718	    -14.59687578	     -2.47598505	     -0.97652545	     16.37735551	     -1.41830048	     -4.89307974	     -3.73417893	    -17.46504876	      8.51071565	     10.99263059	      8.16759456	     21.65891618	      0.68723717	    -23.51729953
      3.82000000	    -16.53493723	     -5.53679824	      4.74828366	     -1.93061218	     -0.04209885	     -0.32372519	     43.33709505	      2.27518531	    -19.37101409	    -15.55901446	     -3.38327463	     -2.69272313	     16.31313219	     -1.50193477	     -5.40872227	     -3.87151678	    -18.31979474	      7.96243991	     11.43316083	      8.42862800	     21.85672066	      1.00818752	    -23.52308393
      3.82500000	    -16.52808896	     -5.82224890	      4.55897918	     -1.92220639	     -0.04315512	     -0.32307122	     43.55179335	      2.74085215	    -18.52797259	    -16.62550481	     -4.29354911	     -4.49473242	     16.11221623	     -1.57456727	     -5.91719889	     -4.24549338	    -19.20179187	      7.28626079	     11.92633217	      8.97538559	     22.06510922	      1.35122659	    -23.38787263
      3.83000000	    -16.53331058	     -6.16239679	      4.46538534	     -1.91382485	     -0.04413743	     -0.32254477	     43.79324295	      3.19818466	    -17.68245335	    -17.75452092	     -5.16308713	     -6.39325243	     15.63784994	     -1.55999007	     -6.47932454	     -4.45718928	    -20.15549621	      6.49739220	     12.30295442	      9.60341407	     22.29067140	      1.71405648	    -23.37930132
      3.83500000	    -16.53806783	     -6.49391238	      4.36725284	     -1.90545856	     -0.04506406	     -0.32197649	     44.06313698	      3.66866313	    -16.77981284	    -18.96823537	     -5.94090159	     -8.30686831	     14.86338415	     -1.50885713	     -7.04091883	     -4.65162932	    -21.15068073	      5.57584326	     12.68763946	     10.35158147	     22.51211873	      2.06532296	    -23.36153548
      3.84000000	    -16.49681392	     -6.76194032	      4.26500188	     -1.89723867	     -0.04594490	     -0.32127557	     44.33839327	      4.12323327	    -15.71414947	    -20.34058141	     -6.46435403	    -10.00064335	     13.11145578	     -1.44821557	     -7.57370613	     -4.96368595	    -22.18405099	      4.46506828	     13.11835446	     11.89608190	     22.64770253	      2.34397760	    -23.36460665
      3.84500000	    -16.50519582	     -7.12190791	      4.14497977	     -1.88880202	     -0.04679623	     -0.32068971	     44.63961209	      4.66334133	    -14.84185383	    -21.66464758	     -6.97252113	    -11.79260653	     11.96541666	     -1.31733392	     -8.16838662	     -5.13500975	    -23.28348325	      3.29170178	     13.37248415	     12.67878756	     22.88451179	      2.73072425	    -23.35361790
      3.85000000	    -16.38762902	     -7.40988699	      4.13207299	     -1.88056190	     -0.04746900	     -0.32009940	     44.82959828	      5.11321745	    -13.93151094	    -23.12774860	     -7.03665710	    -13.05444317	      9.22160290	     -1.23684636	     -8.71868505	     -5.24866630	    -24.36774457	      1.78484416	     13.46356953	     14.78629876	     22.94657291	      3.00235860	    -23.46787265
      3.85500000	    -16.31154253	     -7.69206641	      4.07159877	     -1.87235330	     -0.04818754	     -0.31941873	     45.03741868	      5.60754440	    -13.01664806	    -24.51002784	     -7.06581887	    -14.37978291	      7.48263537	     -1.04035450	     -9.27744254	     -5.43876171	    -25.61515112	      0.30168168	     13.72537657	     16.17420241	     23.04033438	      3.27341087	    -23.53121133
      3.86000000	    -16.19747161	     -7.96396555	      4.04720785	     -1.86413095	     -0.04878602	     -0.31879610	     45.16770212	      6.07386253	    -12.28260769	    -25.85543188	     -6.92205820	    -15.51447827	      5.66361914	     -0.83393281	     -9.82118303	     -5.55291217	    -26.87628746	     -1.40844168	     13.80822697	     17.80620942	     23.09784453	      3.52541460	    -23.62390353
      3.86500000	    -16.07644940	     -8.21501088	      4.02830475	     -1.85598963	     -0.04934899	     -0.31815444	     45.25971486	      6.51700327	    -11.70098269	    -27.14703599	     -6.66234224	    -16.53337409	      4.09490301	     -0.56175799	    -10.35146790	     -5.66558263	    -28.21887815	     -3.22800873	     13.86795969	     19.36310585	     23.12980481	      3.75607657	    -23.69669429
      3.87000000	    -15.96849497	     -8.51061402	      4.03957434	     -1.84789988	     -0.04988406	     -0.31756609	     45.28808939	      6.99168135	    -11.15067669	    -28.29722622	     -6.29402963	    -17.42556722	      2.74768819	     -0.18212970	    -10.92132150	     -5.70420747	    -29.66249905	     -5.11313334	     13.75951165	     20.84539337	     23.17521940	      4.01238263	    -23.87561241
      3.87500000	    -15.76899968	     -8.72593466	      4.14789244	     -1.83995130	     -0.05022378	     -0.31709971	     45.17633159	      7.32211226	    -10.80985037	    -29.41069422	     -5.67896471	    -18.01421829	      1.23680784	      0.16545897	    -11.37705341	     -5.53808410	    -31.07431284	     -7.22483385	     13.37849632	     22.68480903	     23.09806349	      4.16354456	    -24.09887899
      3.88000000	    -15.54752748	     -8.94918883	      4.22799837	     -1.83209948	     -0.05051289	     -0.31677685	     44.95860129	      7.65724151	    -10.56014944	    -30.33458808	     -5.09516196	    -18.63991560	      0.97570647	      0.57798238	    -11.80441719	     -5.36873245	    -32.69282109	     -9.17206148	     12.96804108	     22.90598330	     22.98291936	      4.36839436	    -24.29810201
      3.88500000	    -15.43536912	     -9.15452487	      4.38710013	     -1.82441267	     -0.05084719	     -0.31624193	     44.84457485	      7.92778572	    -10.42338824	    -31.28616728	     -4.29245066	    -18.91194356	     -0.54488091	      1.19259030	    -12.23825460	     -5.08218416	    -34.20169694	    -11.39747106	     12.36099864	     25.26180980	     22.96131669	      4.45667228	    -24.59522307
      3.89000000	    -15.19570986	     -9.35703945	      4.49555673	     -1.81671328	     -0.05096167	     -0.31586497	     44.49239688	      8.22718426	    -10.35171889	    -32.04004391	     -3.50158635	    -19.20339039	     -1.16642124	      1.69022837	    -12.61929927	     -4.81478380	    -35.80333167	    -13.47454340	     11.62625782	     26.02569191	     22.80363022	      4.61383662	    -24.78452858
      3.89500000	    -15.07007670	     -9.59567365	      4.61337114	     -1.80919476	     -0.05117199	     -0.31548153	     44.22363934	      8.52156016	    -10.36630117	    -32.69748980	     -2.72517605	    -19.40725298	     -1.54259096	      2.42171827	    -13.02264925	     -4.50408645	    -37.53062849	    -15.38182101	     10.84705902	     26.56342454	     22.74468748	      4.78838976	    -25.02691790
      3.90000000	    -14.96614406	     -9.83665030	      4.68041099	     -1.80174314	     -0.05135617	     -0.31506111	     43.92524665	      8.84585177	    -10.36986026	    -33.27493026	     -1.85612509	    -19.38771347	     -2.05384540	      3.19971945	    -13.41116123	     -4.22883717	    -39.24889146	    -17.17579651	      9.88283282	     27.30372587	     22.69643628	      4.99029882	    -25.22085211
      3.90500000	    -14.79605774	    -10.10320181	      4.75883223	     -1.79440437	     -0.05138216	     -0.31465813	     43.48809346	      9.20995966	    -10.39556259	    -33.68204769	     -1.15297778	    -19.62353870	     -2.07557033	      3.96821621	    -13.80627884	     -3.92451200	    -41.04424732	    -18.69363228	      8.89453761	     27.18622082	     22.56497907	      5.22078213	    -25.40118668
      3.91000000	    -14.68421688	    -10.36443209	      4.88129026	     -1.78721102	     -0.05138969	     -0.31437678	     43.08311862	      9.49491191	    -10.56232307	    -34.03442807	     -0.38893116	    -19.64414120	     -2.07309850	      4.87456923	    -14.15129209	     -3.52912387	    -42.86649444	    -19.99852412	      7.74604148	     27.05481262	     22.48377537	      5.43257988	    -25.62526934
      3.91500000	    -14.66680498	    -10.57159990	      5.06356177	     -1.78019649	     -0.05139068	     -0.31419486	     42.76185483	      9.64744280	    -10.81678159	    -34.36862128	      0.44070889	    -19.44141363	     -2.08622368	      5.95886392	    -14.37296691	     -2.97329410	    -44.70682481	    -21.08004775	      6.55011877	     26.81673170	     22.48050421	      5.55007763	    -25.90499201
      3.92000000	    -14.63960960	    -10.81311958	      5.17297456	     -1.77320140	     -0.05132087	     -0.31397295	     42.37497355	      9.89509756	    -11.01478706	    -34.58536647	      1.18933979	    -19.30725103	     -2.07307288	      7.03193387	    -14.62524628	     -2.53713959	    -46.54321726	    -21.83953986	      5.23833928	     26.33430941	     22.46465601	      5.74372028	    -26.08649539
      3.92500000	    -14.62624058	    -11.04745663	      5.27338288	     -1.76627214	     -0.05117212	     -0.31378658	     41.96441110	     10.13375070	    -11.23506320	    -34.72739582	      1.90306792	    -19.14637108	     -2.00701647	      8.14213387	    -14.84315649	     -2.11360351	    -48.36488317	    -22.31573016	      3.87066022	     25.62032301	     22.45611450	      5.93636263	    -26.23457246
      3.93000000	    -14.63635344	    -11.26080081	      5.36201765	     -1.75940418	     -0.05094967	     -0.31363439	     41.54306996	     10.35598610	    -11.44179491	    -34.80500861	      2.58594223	    -18.96203049	     -1.89790088	      9.29231976	    -15.01044165	     -1.70534644	    -50.16117314	    -22.51737032	      2.47922006	     24.64990958	     22.46540376	      6.11832930	    -26.35703857
